{
  "accessors": [
    {
      "bufferView": 2,
      "componentType": 5126,
      "count": 1600,
      "max": [
        0.05997453257441521,
        0.006107687950134277,
        0.05979819595813751
      ],
      "min": [
        -0.05997453257441521,
        -0.006107687950134277,
        -0.05979819595813751
      ],
      "type": "VEC3"
    },
    {
      "bufferView": 2,
      "byteOffset": 19200,
      "componentType": 5126,
      "count": 1600,
      "max": [
        0.9973323941230774,
        0.9960685968399048,
        0.9970443248748779
      ],
      "min": [
        -0.9973324537277222,
        -0.9960685968399048,
        -0.9970442652702332
      ],
      "type": "VEC3"
    },
    {
      "bufferView": 1,
      "componentType": 5126,
      "count": 1600,
      "max": [
        0.9794382452964783,
        0.9955812692642212
      ],
      "min": [
        0.00017286071670241654,
        0.00017286071670241654
      ],
      "type": "VEC2"
    },
    {
      "bufferView": 0,
      "componentType": 5125,
      "count": 2400,
      "type": "SCALAR"
    },
    {
      "bufferView": 2,
      "byteOffset": 38400,
      "componentType": 5126,
      "count": 198,
      "max": [
        0.05760590732097626,
        0.004304107744246721,
        0.057437535375356674
      ],
      "min": [
        -0.05753401666879654,
        -0.005897817201912403,
        -0.057315386831760406
      ],
      "type": "VEC3"
    },
    {
      "bufferView": 2,
      "byteOffset": 40776,
      "componentType": 5126,
      "count": 198,
      "max": [
        0.044932954013347626,
        -0.9960684776306152,
        0.07634520530700684
      ],
      "min": [
        0.04493282362818718,
        -0.9960685968399048,
        0.07634510099887848
      ],
      "type": "VEC3"
    },
    {
      "bufferView": 1,
      "byteOffset": 12800,
      "componentType": 5126,
      "count": 198,
      "max": [
        0.6339215040206909,
        0.9998270869255066
      ],
      "min": [
        0.31181782484054565,
        0.677086591720581
      ],
      "type": "VEC2"
    },
    {
      "bufferView": 0,
      "byteOffset": 9600,
      "componentType": 5125,
      "count": 300,
      "type": "SCALAR"
    },
    {
      "bufferView": 2,
      "byteOffset": 43152,
      "componentType": 5126,
      "count": 200,
      "max": [
        0.05753401666879654,
        0.00589781766757369,
        0.05731538310647011
      ],
      "min": [
        -0.05760590732097626,
        -0.004304107278585434,
        -0.05743753910064697
      ],
      "type": "VEC3"
    },
    {
      "bufferView": 2,
      "byteOffset": 45552,
      "componentType": 5126,
      "count": 200,
      "max": [
        -0.044932831078767776,
        0.9960685968399048,
        -0.07634510099887848
      ],
      "min": [
        -0.04493297263979912,
        0.9960684776306152,
        -0.07634519785642624
      ],
      "type": "VEC3"
    },
    {
      "bufferView": 1,
      "byteOffset": 14384,
      "componentType": 5126,
      "count": 200,
      "max": [
        0.8466150760650635,
        0.5030847787857056
      ],
      "min": [
        0.4080163836479187,
        0.06361894309520721
      ],
      "type": "VEC2"
    },
    {
      "bufferView": 0,
      "byteOffset": 10800,
      "componentType": 5125,
      "count": 300,
      "type": "SCALAR"
    }
  ],
  "asset": {
    "extras": {
      "author": "satur01 (https://sketchfab.com/satur01)",
      "license": "CC-BY-NC-4.0 (http://creativecommons.org/licenses/by-nc/4.0/)",
      "source": "https://sketchfab.com/3d-models/star-platinum-disc-1ff82165a6b24c769341ec676c6cdc78",
      "title": "Star Platinum Disc"
    },
    "generator": "Sketchfab-12.68.0",
    "version": "2.0"
  },
  "bufferViews": [
    {
      "buffer": 0,
      "byteLength": 12000,
      "name": "floatBufferViews",
      "target": 34963
    },
    {
      "buffer": 0,
      "byteLength": 15984,
      "byteOffset": 12000,
      "byteStride": 8,
      "name": "floatBufferViews",
      "target": 34962
    },
    {
      "buffer": 0,
      "byteLength": 47952,
      "byteOffset": 27984,
      "byteStride": 12,
      "name": "floatBufferViews",
      "target": 34962
    }
  ],
  "buffers": [
    {
      "byteLength": 75936,
      "uri": "scene.bin"
    }
  ],
  "images": [
    {
      "uri": "textures/Anisotropic_baseColor.png"
    }
  ],
  "materials": [
    {
      "doubleSided": true,
      "name": "Base",
      "pbrMetallicRoughness": {
        "metallicFactor": 0.0,
        "roughnessFactor": 0.5
      }
    },
    {
      "doubleSided": true,
      "name": "Anisotropic",
      "pbrMetallicRoughness": {
        "baseColorTexture": {
          "index": 0
        },
        "metallicFactor": 0.0,
        "roughnessFactor": 0.0
      }
    },
    {
      "name": "AnisotropicSP",
      "pbrMetallicRoughness": {
        "baseColorTexture": {
          "index": 0
        },
        "metallicFactor": 0.501818,
        "roughnessFactor": 0.14255106440879017
      }
    }
  ],
  "meshes": [
    {
      "name": "Object_0",
      "primitives": [
        {
          "attributes": {
            "NORMAL": 1,
            "POSITION": 0,
            "TEXCOORD_0": 2
          },
          "indices": 3,
          "material": 0,
          "mode": 4
        }
      ]
    },
    {
      "name": "Object_1",
      "primitives": [
        {
          "attributes": {
            "NORMAL": 5,
            "POSITION": 4,
            "TEXCOORD_0": 6
          },
          "indices": 7,
          "material": 1,
          "mode": 4
        }
      ]
    },
    {
      "name": "Object_2",
      "primitives": [
        {
          "attributes": {
            "NORMAL": 9,
            "POSITION": 8,
            "TEXCOORD_0": 10
          },
          "indices": 11,
          "material": 2,
          "mode": 4
        }
      ]
    }
  ],
  "nodes": [
    {
      "children": [
        1
      ],
      "matrix": [
        1.0,
        0.0,
        0.0,
        0.0,
        0.0,
        3.828568672208042e-16,
        -1.0,
        0.0,
        0.0,
        1.0,
        3.828568672208042e-16,
        0.0,
        -4.008241376141086e-05,
        -1.2821855932543591e-07,
        1.500939379184274e-05,
        1.0
      ],
      "name": "Sketchfab_model"
    },
    {
      "children": [
        2
      ],
      "name": "root"
    },
    {
      "children": [
        3
      ],
      "matrix": [
        1.0,
        0.0,
        0.0,
        0.0,
        0.0,
        2.220446049250313e-16,
        1.0,
        0.0,
        0.0,
        -1.0,
        2.220446049250313e-16,
        0.0,
        0.0,
        0.0,
        0.0,
        1.0
      ],
      "name": "GLTF_SceneRootNode"
    },
    {
      "children": [
        4,
        5,
        6
      ],
      "matrix": [
        0.861816259037772,
        -0.0449328507092903,
        0.5052264587145812,
        0.0,
        3.51171861034949e-09,
        0.9960684963572773,
        0.08858640169096299,
        0.0,
        -0.5072205986137981,
        -0.07634519953270993,
        0.8584280254337989,
        0.0,
        0.0,
        0.0,
        0.0,
        1.0
      ],
      "name": "CD_2"
    },
    {
      "mesh": 0,
      "name": "Object_4"
    },
    {
      "mesh": 1,
      "name": "Object_5"
    },
    {
      "mesh": 2,
      "name": "Object_6"
    }
  ],
  "samplers": [
    {
      "magFilter": 9729,
      "minFilter": 9987,
      "wrapS": 10497,
      "wrapT": 10497
    }
  ],
  "scene": 0,
  "scenes": [
    {
      "name": "Sketchfab_Scene",
      "nodes": [
        0
      ]
    }
  ],
  "textures": [
    {
      "sampler": 0,
      "source": 0
    }
  ]
}
