{
  "accessors": [
    {
      "bufferView": 2,
      "componentType": 5126,
      "count": 400,
      "max": [
        11096.541015625,
        1717.171142578125,
        11072.107421875
      ],
      "min": [
        -11096.541015625,
        18.189403533935547,
        -11104.6904296875
      ],
      "type": "VEC3"
    },
    {
      "bufferView": 2,
      "byteOffset": 4800,
      "componentType": 5126,
      "count": 400,
      "max": [
        0.9970320463180542,
        0.9995449185371399,
        0.9977698922157288
      ],
      "min": [
        -0.9989899396896362,
        -1.0,
        -0.9987438917160034
      ],
      "type": "VEC3"
    },
    {
      "bufferView": 3,
      "componentType": 5126,
      "count": 400,
      "max": [
        1.0,
        0.9139405488967896,
        0.999919056892395,
        1.0
      ],
      "min": [
        -0.9999382495880127,
        -0.914119303226471,
        -0.9995059967041016,
        1.0
      ],
      "type": "VEC4"
    },
    {
      "bufferView": 1,
      "componentType": 5126,
      "count": 400,
      "max": [
        0.9402068853378296,
        0.9421036839485168
      ],
      "min": [
        0.2185876965522766,
        0.21867024898529053
      ],
      "type": "VEC2"
    },
    {
      "bufferView": 1,
      "byteOffset": 3200,
      "componentType": 5126,
      "count": 400,
      "max": [
        0.9402068853378296,
        0.9421036839485168
      ],
      "min": [
        0.2185876965522766,
        0.21867024898529053
      ],
      "type": "VEC2"
    },
    {
      "bufferView": 0,
      "componentType": 5125,
      "count": 1260,
      "type": "SCALAR"
    }
  ],
  "asset": {
    "extras": {
      "author": "Alena Trushina (https://sketchfab.com/Alena_Trushina)",
      "license": "CC-BY-4.0 (http://creativecommons.org/licenses/by/4.0/)",
      "source": "https://sketchfab.com/3d-models/ultimate-frisbee-4c799485ff4f4a4586f6cc6eb2fb50f3",
      "title": "Ultimate frisbee"
    },
    "generator": "Sketchfab-12.68.0",
    "version": "2.0"
  },
  "bufferViews": [
    {
      "buffer": 0,
      "byteLength": 5040,
      "name": "floatBufferViews",
      "target": 34963
    },
    {
      "buffer": 0,
      "byteLength": 6400,
      "byteOffset": 5040,
      "byteStride": 8,
      "name": "floatBufferViews",
      "target": 34962
    },
    {
      "buffer": 0,
      "byteLength": 9600,
      "byteOffset": 11440,
      "byteStride": 12,
      "name": "floatBufferViews",
      "target": 34962
    },
    {
      "buffer": 0,
      "byteLength": 6400,
      "byteOffset": 21040,
      "byteStride": 16,
      "name": "floatBufferViews",
      "target": 34962
    }
  ],
  "buffers": [
    {
      "byteLength": 27440,
      "uri": "scene.bin"
    }
  ],
  "images": [
    {
      "uri": "textures/Mat.1_baseColor.jpeg"
    },
    {
      "uri": "textures/Mat.1_normal.png"
    }
  ],
  "materials": [
    {
      "doubleSided": true,
      "name": "Mat.1",
      "normalTexture": {
        "index": 1
      },
      "pbrMetallicRoughness": {
        "baseColorTexture": {
          "index": 0
        },
        "metallicFactor": 0.0,
        "roughnessFactor": 0.9524317154
      }
    }
  ],
  "meshes": [
    {
      "name": "TARELKA_Mat.1_0",
      "primitives": [
        {
          "attributes": {
            "NORMAL": 1,
            "POSITION": 0,
            "TANGENT": 2,
            "TEXCOORD_0": 3,
            "TEXCOORD_1": 4
          },
          "indices": 5,
          "material": 0,
          "mode": 4
        }
      ]
    }
  ],
  "nodes": [
    {
      "children": [
        1
      ],
      "matrix": [
        1.0,
        2.8327693431939985e-16,
        2.8327693431939995e-16,
        0.0,
        -2.832769343193999e-16,
        -2.2204460492503136e-16,
        1.0,
        0.0,
        2.832769343193999e-16,
        -1.0,
        -2.2204460492503126e-16,
        0.0,
        -0.0068593393079936504,
        1735.3602294921875,
        -32.6184654235836,
        1.0
      ],
      "name": "Sketchfab_model"
    },
    {
      "children": [
        2
      ],
      "matrix": [
        1.0,
        0.0,
        0.0,
        0.0,
        0.0,
        0.0,
        1.0,
        0.0,
        0.0,
        -1.0,
        0.0,
        0.0,
        0.0,
        0.0,
        0.0,
        1.0
      ],
      "name": "ea19f9e915914de5a810b8cdb08861c2.fbx"
    },
    {
      "children": [
        3
      ],
      "name": "RootNode"
    },
    {
      "children": [
        4
      ],
      "name": "TARELKA"
    },
    {
      "mesh": 0,
      "name": "TARELKA_Mat.1_0"
    }
  ],
  "samplers": [
    {
      "magFilter": 9729,
      "minFilter": 9987,
      "wrapS": 10497,
      "wrapT": 10497
    }
  ],
  "scene": 0,
  "scenes": [
    {
      "name": "Sketchfab_Scene",
      "nodes": [
        0
      ]
    }
  ],
  "textures": [
    {
      "sampler": 0,
      "source": 0
    },
    {
      "sampler": 0,
      "source": 1
    }
  ]
}
